<?xml version="1.0" encoding="utf-8"?>
<!-- Generator: Adobe Illustrator 16.0.0, SVG Export Plug-In . SVG Version: 6.00 Build 0)  -->
<!DOCTYPE svg PUBLIC "-//W3C//DTD SVG 1.1//EN" "http://www.w3.org/Graphics/SVG/1.1/DTD/svg11.dtd">
<svg version="1.1" id="Layer_1" xmlns="http://www.w3.org/2000/svg" xmlns:xlink="http://www.w3.org/1999/xlink" x="0px" y="0px"
	 width="512px" height="512px" viewBox="0 0 512 512" enable-background="new 0 0 512 512" xml:space="preserve">
<g id="_x31_2._package_x2C__design_x2C__advertising_x2C__brand_x2C__print">
	<g>
		<polygon fill="#D7E9FF" points="423.959,84.042 423.959,68.046 56.048,68.046 56.048,84.042 40.052,507.938 439.955,507.938 		"/>
	</g>
	<g>
		<polygon fill="#FFFFFF" points="56.048,84.042 40.052,507.938 56.048,507.938 72.044,84.042 		"/>
	</g>
	<g>
		<polygon fill="#94C1FF" points="423.959,84.042 439.955,507.938 423.959,507.938 407.963,84.042 		"/>
	</g>
	<g>
		<circle fill="#FFFFFF" cx="240.004" cy="291.991" r="87.979"/>
	</g>
	<g>
		<polygon fill="#94C1FF" points="471.947,491.942 439.955,507.938 423.959,84.042 423.959,68.046 423.959,4.062 431.957,4.062 		
			"/>
	</g>
	<g>
		<rect x="56.048" y="4.062" fill="#FFD2A6" width="367.911" height="63.984"/>
	</g>
	<g>
		<rect x="56.048" y="4.062" fill="#D7E9FF" width="367.911" height="63.984"/>
	</g>
	<g>
		<path fill="#656D78" d="M242.881,329.021l-32.152,45.91c-7.838-2.718-15.113-6.482-21.674-11.278l38.951-55.666l14.477,20.792
			L242.881,329.021z"/>
	</g>
	<g>
		<path fill="#5C9EFF" d="M242.881,329.021l-32.152,45.91c-7.838-2.718-15.113-6.482-21.674-11.278l38.951-55.666l14.477,20.792
			L242.881,329.021z"/>
	</g>
	<g>
		<path fill="#94C1FF" d="M279.994,275.995l38.709,55.346c-14.395,28.876-44.231,48.629-78.7,48.629
			c-10.318,0-20.155-1.757-29.274-5.038l32.152-45.91L279.994,275.995z"/>
	</g>
	<g>
		<polygon fill="#5C9EFF" points="455.951,467.948 471.947,491.942 439.955,507.938 		"/>
	</g>
	<g>
		<path fill="#D7E9FF" d="M208.011,244.003c8.799,0,15.996,7.197,15.996,15.996c0,8.795-7.197,15.996-15.996,15.996
			s-15.996-7.201-15.996-15.996C192.015,251.2,199.212,244.003,208.011,244.003z"/>
	</g>
	<g>
		<rect x="56.048" y="68.046" fill="#94C1FF" width="367.911" height="15.996"/>
	</g>
	<g>
		<polygon fill="#FFFFFF" points="256,68.046 256,108.036 240.003,100.038 224.007,108.036 224.007,68.046 224.007,4.062 256,4.062 
					"/>
	</g>
	<g>
		<rect x="56.048" y="4.062" fill="#FFFFFF" width="15.996" height="63.984"/>
	</g>
	<g>
		<rect x="407.963" y="4.062" fill="#94C1FF" width="15.996" height="63.984"/>
	</g>
	<g>
		<g>
			<path fill="#116FFF" d="M40.056,511.938c-0.051,0-0.102,0-0.156,0c-2.207-0.086-3.929-1.945-3.843-4.147l15.996-423.9
				c0.082-2.21,1.753-3.96,4.147-3.843c2.206,0.082,3.929,1.937,3.843,4.147L44.047,508.087
				C43.965,510.242,42.192,511.938,40.056,511.938z"/>
		</g>
		<g>
			<path fill="#116FFF" d="M439.947,511.938c-2.133,0-3.905-1.695-3.991-3.851L419.96,84.194c-0.086-2.21,1.64-4.065,3.843-4.147
				c2.305-0.105,4.062,1.636,4.147,3.843l15.996,423.9c0.086,2.202-1.633,4.062-3.843,4.147
				C440.049,511.938,440.002,511.938,439.947,511.938z"/>
		</g>
		<g>
			<path fill="#116FFF" d="M439.955,511.938H40.052c-2.21,0-3.999-1.789-3.999-3.999s1.789-3.999,3.999-3.999h399.903
				c2.211,0,3.999,1.789,3.999,3.999S442.166,511.938,439.955,511.938z"/>
		</g>
		<g>
			<path fill="#116FFF" d="M216.009,8.061H56.048c-2.21,0-3.999-1.789-3.999-3.999s1.789-3.999,3.999-3.999h159.961
				c2.21,0,3.999,1.789,3.999,3.999S218.22,8.061,216.009,8.061z"/>
		</g>
		<g>
			<path fill="#116FFF" d="M439.955,511.938c-0.5,0-1-0.094-1.484-0.289c-2.054-0.82-3.054-3.147-2.233-5.194l15.996-39.99
				c0.82-2.054,3.163-3.054,5.202-2.226c2.046,0.82,3.046,3.147,2.226,5.193l-15.996,39.99
				C443.04,510.984,441.541,511.938,439.955,511.938z"/>
		</g>
		<g>
			<path fill="#116FFF" d="M471.947,495.941c-1.289,0-2.562-0.625-3.327-1.781l-15.996-23.994c-1.227-1.835-0.734-4.318,1.108-5.545
				c1.836-1.227,4.32-0.727,5.546,1.109l15.996,23.994c1.227,1.835,0.727,4.318-1.108,5.545
				C473.479,495.723,472.713,495.941,471.947,495.941z"/>
		</g>
		<g>
			<path fill="#116FFF" d="M439.955,511.938c-1.469,0-2.874-0.812-3.577-2.211c-0.992-1.976-0.188-4.373,1.788-5.365l31.992-15.996
				c1.969-0.992,4.374-0.188,5.366,1.789c0.984,1.976,0.188,4.373-1.788,5.365l-31.992,15.996
				C441.166,511.805,440.557,511.938,439.955,511.938z"/>
		</g>
		<g>
			<path fill="#116FFF" d="M471.939,495.941c-2.062,0-3.812-1.586-3.983-3.671L427.966,4.39c-0.18-2.203,1.46-4.132,3.663-4.315
				c2.289-0.109,4.132,1.457,4.312,3.659l39.99,487.881c0.18,2.202-1.461,4.132-3.655,4.312
				C472.158,495.934,472.049,495.941,471.939,495.941z"/>
		</g>
		<g>
			<path fill="#116FFF" d="M216.009,72.045H56.048c-2.21,0-3.999-1.789-3.999-3.999s1.789-3.999,3.999-3.999h159.961
				c2.21,0,3.999,1.789,3.999,3.999S218.22,72.045,216.009,72.045z"/>
		</g>
		<g>
			<path fill="#116FFF" d="M423.959,72.045c-2.211,0-3.999-1.789-3.999-3.999V4.062c0-2.21,1.788-3.999,3.999-3.999
				s3.999,1.789,3.999,3.999v63.984C427.958,70.256,426.17,72.045,423.959,72.045z"/>
		</g>
		<g>
			<path fill="#116FFF" d="M56.048,72.045c-2.21,0-3.999-1.789-3.999-3.999V4.062c0-2.21,1.789-3.999,3.999-3.999
				s3.999,1.789,3.999,3.999v63.984C60.047,70.256,58.259,72.045,56.048,72.045z"/>
		</g>
		<g>
			<path fill="#116FFF" d="M56.048,76.044c-2.21,0-3.999-1.789-3.999-3.999v-3.999c0-2.21,1.789-3.999,3.999-3.999
				s3.999,1.789,3.999,3.999v3.999C60.047,74.255,58.259,76.044,56.048,76.044z"/>
		</g>
		<g>
			<path fill="#116FFF" d="M72.044,76.044c-2.21,0-3.999-1.789-3.999-3.999v-3.999c0-2.21,1.789-3.999,3.999-3.999
				s3.999,1.789,3.999,3.999v3.999C76.043,74.255,74.255,76.044,72.044,76.044z"/>
		</g>
		<g>
			<path fill="#116FFF" d="M88.041,76.044c-2.21,0-3.999-1.789-3.999-3.999v-3.999c0-2.21,1.789-3.999,3.999-3.999
				s3.999,1.789,3.999,3.999v3.999C92.04,74.255,90.251,76.044,88.041,76.044z"/>
		</g>
		<g>
			<path fill="#116FFF" d="M104.037,76.044c-2.21,0-3.999-1.789-3.999-3.999v-3.999c0-2.21,1.789-3.999,3.999-3.999
				s3.999,1.789,3.999,3.999v3.999C108.036,74.255,106.247,76.044,104.037,76.044z"/>
		</g>
		<g>
			<path fill="#116FFF" d="M120.033,76.044c-2.21,0-3.999-1.789-3.999-3.999v-3.999c0-2.21,1.789-3.999,3.999-3.999
				s3.999,1.789,3.999,3.999v3.999C124.032,74.255,122.243,76.044,120.033,76.044z"/>
		</g>
		<g>
			<path fill="#116FFF" d="M136.029,76.044c-2.21,0-3.999-1.789-3.999-3.999v-3.999c0-2.21,1.789-3.999,3.999-3.999
				s3.999,1.789,3.999,3.999v3.999C140.028,74.255,138.239,76.044,136.029,76.044z"/>
		</g>
		<g>
			<path fill="#116FFF" d="M152.025,76.044c-2.21,0-3.999-1.789-3.999-3.999v-3.999c0-2.21,1.789-3.999,3.999-3.999
				s3.999,1.789,3.999,3.999v3.999C156.024,74.255,154.235,76.044,152.025,76.044z"/>
		</g>
		<g>
			<path fill="#116FFF" d="M168.021,76.044c-2.21,0-3.999-1.789-3.999-3.999v-3.999c0-2.21,1.789-3.999,3.999-3.999
				s3.999,1.789,3.999,3.999v3.999C172.02,74.255,170.231,76.044,168.021,76.044z"/>
		</g>
		<g>
			<path fill="#116FFF" d="M184.017,76.044c-2.21,0-3.999-1.789-3.999-3.999v-3.999c0-2.21,1.789-3.999,3.999-3.999
				s3.999,1.789,3.999,3.999v3.999C188.016,74.255,186.228,76.044,184.017,76.044z"/>
		</g>
		<g>
			<path fill="#116FFF" d="M200.013,76.044c-2.21,0-3.999-1.789-3.999-3.999v-3.999c0-2.21,1.789-3.999,3.999-3.999
				s3.999,1.789,3.999,3.999v3.999C204.012,74.255,202.224,76.044,200.013,76.044z"/>
		</g>
		<g>
			<path fill="#116FFF" d="M224.007,112.035c-2.21,0-3.999-1.789-3.999-3.999V4.062c0-2.21,1.789-3.999,3.999-3.999
				s3.999,1.789,3.999,3.999v103.975C228.006,110.247,226.218,112.035,224.007,112.035z"/>
		</g>
		<g>
			<path fill="#116FFF" d="M256,112.035c-2.21,0-3.999-1.789-3.999-3.999V4.062c0-2.21,1.789-3.999,3.999-3.999
				c2.211,0,4,1.789,4,3.999v103.975C259.999,110.247,258.211,112.035,256,112.035z"/>
		</g>
		<g>
			<path fill="#116FFF" d="M279.994,76.044c-2.211,0-3.999-1.789-3.999-3.999v-3.999c0-2.21,1.788-3.999,3.999-3.999
				s3.999,1.789,3.999,3.999v3.999C283.993,74.255,282.205,76.044,279.994,76.044z"/>
		</g>
		<g>
			<path fill="#116FFF" d="M295.99,76.044c-2.211,0-3.999-1.789-3.999-3.999v-3.999c0-2.21,1.788-3.999,3.999-3.999
				s3.999,1.789,3.999,3.999v3.999C299.989,74.255,298.201,76.044,295.99,76.044z"/>
		</g>
		<g>
			<path fill="#116FFF" d="M311.986,76.044c-2.211,0-3.999-1.789-3.999-3.999v-3.999c0-2.21,1.788-3.999,3.999-3.999
				s3.999,1.789,3.999,3.999v3.999C315.985,74.255,314.197,76.044,311.986,76.044z"/>
		</g>
		<g>
			<path fill="#116FFF" d="M327.982,76.044c-2.211,0-3.999-1.789-3.999-3.999v-3.999c0-2.21,1.788-3.999,3.999-3.999
				s3.999,1.789,3.999,3.999v3.999C331.981,74.255,330.193,76.044,327.982,76.044z"/>
		</g>
		<g>
			<path fill="#116FFF" d="M343.979,76.044c-2.211,0-3.999-1.789-3.999-3.999v-3.999c0-2.21,1.788-3.999,3.999-3.999
				s3.999,1.789,3.999,3.999v3.999C347.978,74.255,346.189,76.044,343.979,76.044z"/>
		</g>
		<g>
			<path fill="#116FFF" d="M359.975,76.044c-2.211,0-3.999-1.789-3.999-3.999v-3.999c0-2.21,1.788-3.999,3.999-3.999
				s3.999,1.789,3.999,3.999v3.999C363.974,74.255,362.186,76.044,359.975,76.044z"/>
		</g>
		<g>
			<path fill="#116FFF" d="M375.971,76.044c-2.211,0-3.999-1.789-3.999-3.999v-3.999c0-2.21,1.788-3.999,3.999-3.999
				s3.999,1.789,3.999,3.999v3.999C379.97,74.255,378.182,76.044,375.971,76.044z"/>
		</g>
		<g>
			<path fill="#116FFF" d="M391.967,76.044c-2.211,0-3.999-1.789-3.999-3.999v-3.999c0-2.21,1.788-3.999,3.999-3.999
				s3.999,1.789,3.999,3.999v3.999C395.966,74.255,394.178,76.044,391.967,76.044z"/>
		</g>
		<g>
			<path fill="#116FFF" d="M407.963,76.044c-2.211,0-3.999-1.789-3.999-3.999v-3.999c0-2.21,1.788-3.999,3.999-3.999
				s3.999,1.789,3.999,3.999v3.999C411.962,74.255,410.174,76.044,407.963,76.044z"/>
		</g>
		<g>
			<path fill="#116FFF" d="M423.959,76.044c-2.211,0-3.999-1.789-3.999-3.999v-3.999c0-2.21,1.788-3.999,3.999-3.999
				s3.999,1.789,3.999,3.999v3.999C427.958,74.255,426.17,76.044,423.959,76.044z"/>
		</g>
		<g>
			<path fill="#116FFF" d="M423.959,72.045H263.998c-2.211,0-3.999-1.789-3.999-3.999s1.788-3.999,3.999-3.999h159.961
				c2.211,0,3.999,1.789,3.999,3.999S426.17,72.045,423.959,72.045z"/>
		</g>
		<g>
			<path fill="#116FFF" d="M423.959,8.061H263.998c-2.211,0-3.999-1.789-3.999-3.999s1.788-3.999,3.999-3.999h159.961
				c2.211,0,3.999,1.789,3.999,3.999S426.17,8.061,423.959,8.061z"/>
		</g>
		<g>
			<path fill="#116FFF" d="M256,8.061h-31.992c-2.21,0-3.999-1.789-3.999-3.999s1.789-3.999,3.999-3.999H256
				c2.211,0,4,1.789,4,3.999S258.211,8.061,256,8.061z"/>
		</g>
		<g>
			<path fill="#116FFF" d="M224.011,112.035c-1.469,0-2.878-0.809-3.581-2.21c-0.988-1.976-0.188-4.378,1.789-5.366l15.996-7.998
				c1.976-0.977,4.37-0.188,5.366,1.789c0.988,1.976,0.188,4.377-1.789,5.366l-15.996,7.998
				C225.222,111.898,224.613,112.035,224.011,112.035z"/>
		</g>
		<g>
			<path fill="#116FFF" d="M255.996,112.035c-0.602,0-1.211-0.137-1.785-0.422l-15.996-7.998c-1.976-0.988-2.777-3.39-1.789-5.366
				c0.992-1.976,3.386-2.765,5.366-1.789l15.997,7.998c1.976,0.988,2.776,3.39,1.788,5.366
				C258.874,111.227,257.465,112.035,255.996,112.035z"/>
		</g>
		<g>
			<path fill="#116FFF" d="M240.003,383.969c-10.595,0-20.901-1.773-30.629-5.272c-8.212-2.851-15.859-6.826-22.678-11.817
				c-24.193-17.035-38.67-45.051-38.67-74.888c0-50.718,41.259-91.978,91.978-91.978c50.714,0,91.978,41.26,91.978,91.978
				c0,14.434-3.265,28.274-9.7,41.139C306.644,364.489,275.12,383.969,240.003,383.969z M240.003,208.012
				c-46.305,0-83.979,37.674-83.979,83.979c0,27.243,13.208,52.808,35.335,68.39c6.233,4.562,13.173,8.17,20.679,10.771
				c8.904,3.202,18.296,4.819,27.966,4.819c32.063,0,60.845-17.785,75.123-46.41c5.874-11.756,8.857-24.393,8.857-37.569
				C323.983,245.686,286.305,208.012,240.003,208.012z"/>
		</g>
		<g>
			<path fill="#116FFF" d="M189.051,367.652c-0.793,0-1.59-0.234-2.289-0.727c-1.808-1.266-2.249-3.757-0.984-5.568l38.952-55.666
				c1.265-1.805,3.753-2.242,5.568-0.984c1.809,1.273,2.25,3.765,0.984,5.576l-38.951,55.666
				C191.554,367.059,190.312,367.652,189.051,367.652z"/>
		</g>
		<g>
			<path fill="#116FFF" d="M242.487,332.778c-1.265,0-2.507-0.602-3.284-1.711l-14.477-20.792c-1.266-1.812-0.816-4.311,0.996-5.568
				c1.808-1.266,4.3-0.812,5.565,0.992l14.477,20.791c1.265,1.812,0.816,4.312-0.996,5.569
				C244.073,332.544,243.276,332.778,242.487,332.778z"/>
		</g>
		<g>
			<path fill="#116FFF" d="M210.725,378.931c-0.792,0-1.593-0.234-2.288-0.726c-1.812-1.266-2.25-3.758-0.984-5.569l69.261-98.937
				c1.265-1.812,3.765-2.25,5.568-0.977c1.812,1.266,2.25,3.757,0.984,5.568l-69.261,98.938
				C213.229,378.337,211.987,378.931,210.725,378.931z"/>
		</g>
		<g>
			<path fill="#116FFF" d="M318.703,335.34c-1.258,0-2.499-0.594-3.28-1.711l-38.709-55.346c-1.266-1.804-0.82-4.295,0.983-5.568
				c1.812-1.258,4.305-0.828,5.569,0.992l38.71,55.346c1.265,1.804,0.827,4.295-0.984,5.568
				C320.297,335.105,319.5,335.34,318.703,335.34z"/>
		</g>
		<g>
			<path fill="#116FFF" d="M208.011,279.994c-11.024,0-19.995-8.967-19.995-19.995c0-11.024,8.971-19.995,19.995-19.995
				s19.995,8.971,19.995,19.995C228.006,271.027,219.036,279.994,208.011,279.994z M208.011,248.002
				c-6.616,0-11.997,5.381-11.997,11.997c0,6.615,5.381,11.997,11.997,11.997c6.615,0,11.997-5.382,11.997-11.997
				C220.008,253.383,214.626,248.002,208.011,248.002z"/>
		</g>
	</g>
</g>
</svg>
